Coordinates
nRows=6
nColumns=38

# SIMM Motion File Header:
name Coordinates
datacolumns 38
datarows 6
otherdata 1
range 1.15999999999999990000 1.16500000000000000000
endheader
time	pelvis_tx	pelvis_ty	pelvis_tz	pelvis_tilt	pelvis_list	pelvis_rotation	hip_flexion_r	hip_adduction_r	hip_rotation_r	knee_angle_r	ankle_angle_r	subtalar_angle_r	mtp_angle_r	hip_flexion_l	hip_adduction_l	hip_rotation_l	knee_angle_l	ankle_angle_l	subtalar_angle_l	mtp_angle_l	lumbar_extension	lumbar_bending	lumbar_rotation	arm_flex_r	arm_add_r	arm_rot_r	elbow_flex_r	pro_sup_r	wrist_flex_r	wrist_dev_r	arm_flex_l	arm_add_l	arm_rot_l	elbow_flex_l	pro_sup_l	wrist_flex_l	wrist_dev_l
      1.15999999999999990000	      0.84337430780138511000	      0.94720832479924522000	     -0.19330288418647532000	      4.38541858079950940000	     -7.01786964748941870000	     -4.03059751172386790000	     24.75394439576749800000	     13.76229999878467000000	      0.90881618220337357000	    -40.18522997325557400000	     11.98877837274056900000	     -0.00000000000003691947	      0.00000000000023285262	    -15.70820592630241600000	    -11.61333706719544500000	     -8.69655850893675540000	    -71.79432494616398200000	    -22.15520779855814100000	      0.00000000000067102713	     -0.00000000000087795148	    -11.52501913459419600000	      6.44110490150080750000	     -9.45313216291030760000	    -34.09232775872193600000	    -35.13907335580043400000	     10.75106339153651000000	     63.39659710215796900000	    103.80471340067662000000	      0.00000000000001336846	      0.00000000000001208799	     -7.22920503137636050000	    -20.98618123121449500000	     11.37132166979295000000	     84.29299967341087600000	    114.12718630982397000000	      0.00000000000003319308	     -0.00000000000000390019
      1.16100000000000000000	      0.84311265974546701000	      0.94655598951963305000	     -0.19336964705891091000	      4.37773964642825670000	     -7.10143199124645190000	     -4.00693449887304710000	     24.75612127803269400000	     13.86927875915654500000	      0.87168391898731878000	    -40.59282888352164100000	     12.18112219107395300000	     -0.00000000000003709794	      0.00000000000023394590	    -15.35396864843872900000	    -11.74603924710694100000	     -8.56915017918313640000	    -72.30456643101808800000	    -21.98404386445260200000	      0.00000000000067335980	     -0.00000000000088066395	    -11.54875736438410200000	      6.55074946853233620000	     -9.38880655147675290000	    -33.92281476731325500000	    -35.20515040957813800000	     10.75165208722664200000	     63.50278554265997900000	    103.84412746233964000000	      0.00000000000001341780	      0.00000000000001211520	     -7.27426314717097270000	    -20.93077348817979600000	     11.43105913170983000000	     84.04403685058650800000	    114.11458315739053000000	      0.00000000000003331636	     -0.00000000000000391344
      1.16199999999999990000	      0.84285248891649212000	      0.94590833430725796000	     -0.19343866575004989000	      4.36896231026694350000	     -7.18431485897970570000	     -3.98150039650431610000	     24.75481356289666500000	     13.97502882674116100000	      0.83366233659359867000	    -40.99521010615242700000	     12.38960685006664900000	     -0.00000000000003727124	      0.00000000000023501166	    -14.99574984257867000000	    -11.87744033318708900000	     -8.43802218714522030000	    -72.81110058326758900000	    -21.81307069396369200000	      0.00000000000067568331	     -0.00000000000088335975	    -11.57040220869101400000	      6.65991068653033480000	     -9.32506130881793640000	    -33.75374709979402600000	    -35.27062127745220000000	     10.75127069421187500000	     63.61056813157070900000	    103.88359432776106000000	      0.00000000000001346876	      0.00000000000001214011	     -7.32071644057359180000	    -20.87575502384582300000	     11.49081103306589000000	     83.79686655251458700000	    114.10104259596744000000	      0.00000000000003344077	     -0.00000000000000392207
      1.16300000000000000000	      0.84259231808751711000	      0.94526067909488287000	     -0.19350768444118888000	      4.36018497410562840000	     -7.26719772671297900000	     -3.95606629413557930000	     24.75350584776063200000	     14.08077889432580000000	      0.79564075419987013000	    -41.39759132878330000000	     12.59809150905939000000	     -0.00000000000003744453	      0.00000000000023607743	    -14.63753103671853100000	    -12.00884141926726500000	     -8.30689419510727410000	    -73.31763473551720300000	    -21.64209752347474200000	      0.00000000000067800683	     -0.00000000000088605555	    -11.59204705299793000000	      6.76907190452835740000	     -9.26131606615910560000	    -33.58467943227475400000	    -35.33609214532627600000	     10.75088930119710700000	     63.71835072048146700000	    103.92306119318248000000	      0.00000000000001351972	      0.00000000000001216502	     -7.36716973397621990000	    -20.82073655951184000000	     11.55056293442196300000	     83.54969625444259400000	    114.08750203454434000000	      0.00000000000003356519	     -0.00000000000000393069
      1.16399999999999990000	      0.84233542928022720000	      0.94462958699568900000	     -0.19358438349459831000	      4.35015696277994660000	     -7.34818435282029370000	     -3.92475744261918710000	     24.73947122734412200000	     14.18243887228026000000	      0.75468916674227104000	    -41.78144537075184700000	     12.84207122519852200000	     -0.00000000000003761454	      0.00000000000023707919	    -14.27016625444477800000	    -12.13660693136782600000	     -8.16530695465250030000	    -73.81378039814667600000	    -21.47253878838411700000	      0.00000000000068031188	     -0.00000000000088867177	    -11.61011314884419200000	      6.87681582448946570000	     -9.20007300865169950000	    -33.41621053075266400000	    -35.39966826594972100000	     10.74807145821638200000	     63.82996173271802600000	    103.96273928595029000000	      0.00000000000001357195	      0.00000000000001218578	     -7.41714540609120650000	    -20.76701370735856500000	     11.61015072538342000000	     83.30778182386474400000	    114.07156180220441000000	      0.00000000000003368929	     -0.00000000000000394617
      1.16500000000000000000	      0.84207854047293729000	      0.94399849489649512000	     -0.19366108254800779000	      4.34012895145426110000	     -7.42917097892762350000	     -3.89344859110277990000	     24.72543660692758700000	     14.28409885023473600000	      0.71373757928465897000	    -42.16529941272045800000	     13.08605094133775600000	     -0.00000000000003778456	      0.00000000000023808096	    -13.90280147217093200000	    -12.26437244346841000000	     -8.02371971419768220000	    -74.30992606077626300000	    -21.30298005329345300000	      0.00000000000068261693	     -0.00000000000089128798	    -11.62817924469045200000	      6.98455974445059540000	     -9.13882995114428450000	    -33.24774162923053900000	    -35.46324438657318700000	     10.74525361523565300000	     63.94157274495461300000	    104.00241737871812000000	      0.00000000000001362418	      0.00000000000001220655	     -7.46712107820620830000	    -20.71329085520528300000	     11.66973851634489100000	     83.06586739328683700000	    114.05562156986448000000	      0.00000000000003381339	     -0.00000000000000396165
